OpenSim_Sub04_EMGBaseline_GRF.mot
version=1
nRows=34
nColumns=19
inDegrees=no
endheader
time	lFx	lFy	lFz	lCOPx	lCOPy	lCOPz	rFx	rFy	rFz	rCOPx	rCOPy	rCOPz	lMx	lMy	lMz	rMx	rMy	rMz
59.55000000	-5.39804105	658.16865712	45.73871523	0.76429025	0	-0.62345899	-0.10860899	0.82160270	0.07672611	-0.00000010	0	0.00000005	0	-0.82015668	0	0	0.00000011	-0.00000000
59.56000000	-2.99797155	660.46289380	45.50329381	0.75841763	0	-0.62354428	-0.13691676	0.76499715	0.13238486	0.00000007	0	-0.00000003	0	-0.77619620	0	0	0.00000008	-0.00000000
59.57000000	-0.60868182	662.71224930	45.26939152	0.75275199	0	-0.62362451	-0.16108484	0.80569300	0.10237316	0.00000059	0	-0.00000026	0	-0.77067217	0	0	-0.00000017	-0.00000000
59.58000000	1.57433859	664.70738919	45.07666986	0.74730004	0	-0.62369379	-0.16439963	0.92731021	0.04412678	0.00000154	0	-0.00000070	0	-0.79218939	0	0	-0.00000083	-0.00000000
59.59000000	3.63441040	666.28336126	45.03821759	0.74186144	0	-0.62369583	-0.14748585	1.00060029	0.05585805	0.00000250	0	-0.00000114	0	-0.88713365	0	0	-0.00000190	-0.00000000
59.60000000	5.79429270	667.48549062	45.08346152	0.73636169	0	-0.62364210	-0.13392764	1.00602598	0.08411029	0.00000180	0	-0.00000085	0	-0.99924172	0	0	-0.00000267	0.00000000
59.61000000	8.17404946	668.37942465	45.14624598	0.73062728	0	-0.62354077	-0.13909866	1.01868486	0.06334609	-0.00000399	0	0.00000174	0	-1.09452683	0	0	-0.00000097	0.00000000
59.62000000	10.60099757	669.19876300	45.30352545	0.72487889	0	-0.62342747	-0.14410836	1.05953733	0.02241407	-0.00001902	0	0.00000852	0	-1.22231471	0	0	0.00000715	0.00000000
59.63000000	12.86855897	670.15987481	45.53487306	0.71914655	0	-0.62330197	-0.11254368	1.06850083	-0.07033712	-0.00004305	0	0.00001949	0	-1.33729974	0	0	0.00002556	-0.00000000
59.64000000	15.05775160	671.37636411	45.78326550	0.71339279	0	-0.62315931	-0.06908762	1.03018539	-0.18881118	-0.00005956	0	0.00002729	0	-1.41601553	0	0	0.00005108	-0.00000000
59.65000000	17.29430464	672.75976458	46.04695646	0.70766729	0	-0.62300593	-0.04310642	0.94680651	-0.25424783	-0.00001894	0	0.00000959	0	-1.48070993	0	0	0.00005932	0.00000000
59.66000000	19.64934523	674.14901383	46.27234514	0.70209836	0	-0.62288292	-0.02072390	0.87817206	-0.32762857	0.00016790	0	-0.00007415	0	-1.51759587	0	0	-0.00001224	-0.00000000
59.67000000	22.09631136	675.41211053	46.47293375	0.69673638	0	-0.62283758	0.02239037	0.84452267	-0.38073355	0.00058541	0	-0.00026317	0	-1.54611948	0	0	-0.00026238	-0.00000000
59.68000000	24.72921388	676.37843162	46.71196067	0.69125589	0	-0.62282598	0.08593091	0.81600435	-0.31203429	0.00115402	0	-0.00052385	0	-1.61038984	0	0	-0.00075619	-0.00000000
59.69000000	27.65672437	676.89177663	46.96715047	0.68548117	0	-0.62278908	0.16941059	0.71801614	-0.20959083	0.00131020	0	-0.00060448	0	-1.66629214	0	0	-0.00131816	-0.00000000
59.70000000	30.73769613	676.89034739	47.23336768	0.67952004	0	-0.62272913	0.22469534	0.40772726	-0.18123301	-0.00036819	0	0.00013736	0	-1.69096875	0	0	-0.00116470	0.00000000
59.71000000	33.66507589	676.51658127	47.60063361	0.67366799	0	-0.62264889	0.10357191	-0.15378639	-0.17914878	-0.00609436	0	0.00271230	0	-1.72837347	0	0	0.00143565	-0.00000000
59.72000000	36.25747455	675.77676774	48.03059998	0.66801049	0	-0.62253519	-0.38181737	-0.75770333	-0.21267875	-0.01724570	0	0.00777570	0	-1.77856835	0	0	0.00880787	-0.00000000
59.73000000	38.73856081	674.42910799	48.34857274	0.66238895	0	-0.62239198	-1.42520942	-0.78112393	-0.32840141	-0.02964313	0	0.01350008	0	-1.78434222	0	0	0.02149826	0
59.74000000	41.38940663	671.99135269	48.41696890	0.65667450	0	-0.62220393	-2.75735214	1.11758526	-0.53672420	-0.02528061	0	0.01181036	0	-1.74563480	0	0	0.03236181	-0.00000000
59.75000000	44.27816616	667.90497569	48.08897100	0.65101996	0	-0.62197014	-3.06349256	7.00552472	-0.66481130	0.03507330	0	-0.01506441	0	-1.63485024	0	0	0.01747150	0
59.76000000	47.18797589	661.73089562	47.30249319	0.64560623	0	-0.62171897	-0.58090872	19.46328708	-0.14660048	0.20314548	0	-0.09086345	0	-1.44592193	0	0	-0.06926922	0
59.77000000	49.99606948	652.93731256	46.05607441	0.64023189	0	-0.62142603	4.87642227	39.93313342	1.62085518	0.48840513	0	-0.22081813	0	-1.18105388	0	0	-0.27814620	0
59.78000000	52.63021927	641.00302784	44.33172413	0.63473669	0	-0.62103978	9.78822487	67.27154897	3.89092057	0.76348690	0	-0.34767407	0	-0.86485469	0	0	-0.63221388	-0.00000000
59.79000000	54.89486655	625.61654314	42.13699622	0.62912187	0	-0.62050843	10.47275981	99.74381341	5.34237294	0.91541307	0	-0.41866279	0	-0.53925200	0	0	-0.98952417	0
59.80000000	56.48507711	606.77814767	39.50159677	0.62354484	0	-0.61979912	6.53963564	137.50297772	5.42700150	0.96398384	0	-0.44204238	0	-0.23578218	0	0	-1.21269707	0
59.81000000	57.23482065	584.51159932	36.36093354	0.61817459	0	-0.61891430	0.19916459	181.65891423	3.84609609	0.96301133	0	-0.44163956	0	0.09317468	0	0	-1.28089130	0.00000000
59.82000000	57.21152323	558.47237433	32.60592891	0.61307989	0	-0.61790063	-6.62485650	231.56901307	0.65436852	0.94959621	0	-0.43452784	0	0.47679379	0	0	-1.25177096	0.00000000
59.83000000	56.50050097	528.13068855	28.16566740	0.60827682	0	-0.61684571	-13.29923429	283.87870744	-3.76275197	0.93833300	0	-0.42823239	0	0.88214484	0	0	-1.23236585	0
59.84000000	54.98056528	493.28597408	23.11979072	0.60383453	0	-0.61577919	-19.87649083	334.04869112	-8.73579691	0.93153183	0	-0.42433288	0	1.27807495	0	0	-1.28792783	-0.00000000
59.85000000	52.33099722	454.06642744	17.76022975	0.59974856	0	-0.61465708	-26.52307478	378.65396877	-13.57317757	0.92768267	0	-0.42210984	0	1.57228619	0	0	-1.42105460	-0.00000000
59.86000000	48.39727131	411.03228282	12.40596926	0.59572641	0	-0.61339965	-32.91060612	415.61561570	-17.77746241	0.92517374	0	-0.42077263	0	1.66401553	0	0	-1.63938761	0
59.87000000	43.17504315	365.62151542	7.31146478	0.59155342	0	-0.61197775	-38.16151798	443.98643142	-20.85678528	0.92315037	0	-0.41994892	0	1.61921995	0	0	-1.95859078	0
59.88000000	36.82376577	319.79585776	2.75656459	0.58717213	0	-0.61039024	-41.88975439	464.79227225	-23.38620847	0.92092325	0	-0.41935781	0	1.46908651	0	0	-2.26530262	-0.00000000
